<svg width="708" height="635" viewBox="0 0 708 635" fill="none" xmlns="http://www.w3.org/2000/svg">
<path d="M489.435 620.769C464.703 627.289 440.035 631.37 414.872 633.061C399.204 634.114 383.545 634.324 367.951 633.691C311.194 631.386 256.256 620.818 205.609 593.792C161.114 570.049 125.968 536.631 103.163 491.103C101.921 488.623 100.227 487.996 97.6656 487.763C48.8971 483.332 8.90305 446.275 1.36498 397.859C-4.57136 359.732 9.0507 328.911 38.4176 304.689C51.8613 293.601 67.2026 286.071 84.347 282.638C88.9864 281.709 91.2566 279.662 92.76 275.016C103.029 243.282 121.451 216.693 144.786 193.145C174.822 162.834 210.649 141.471 249.244 124.169C290.509 105.671 333.681 92.4956 376.467 78.2333C410.942 66.7416 444.9 54.0107 476.894 36.5413C490.085 29.3389 502.595 21.1287 514.345 11.744C521.404 6.10687 528.683 1.02295 538.206 0.169633C552.938 -1.15041 564.025 5.33717 573.088 16.021C587.965 33.5582 596.538 54.1655 601.753 76.3442C605.323 91.5234 606.471 106.93 605.646 122.437C604.83 137.768 602.117 152.828 596.758 167.267C595.304 171.183 596.349 173.049 599.837 174.655C628.439 187.821 654.463 205.19 679.632 223.917C686.581 229.088 693.333 234.542 699.348 240.809C709.428 251.31 710.788 262.656 702.994 274.881C694.338 288.457 682.206 298.623 669.203 307.802C664.987 310.778 660.647 313.587 656.272 316.326C654.286 317.57 653.638 318.846 654.33 321.252C660.848 343.918 663.609 367.076 664.078 390.647C665.248 449.403 648.239 501.965 610.378 547.075C581.752 581.182 544.722 602.981 502.743 616.8C498.477 618.205 494.141 619.398 489.435 620.769ZM642.03 243.468C613.483 223.628 583.043 207.902 548.782 200.422C545.6 199.727 542.564 199.422 539.507 200.77C530.369 204.8 521.227 208.825 512.067 212.805C511.16 213.2 510.199 214.477 508.603 212.475C513.473 208.535 517.492 203.738 521.328 198.771C551.66 159.49 563.546 115.62 553.975 66.5412C551.735 55.0552 547.734 44.0869 541.561 34.0354C538.48 29.0188 537.266 28.9656 533.721 33.4742C530.737 37.2679 528.004 41.2955 524.723 44.8114C504.916 66.0333 480.405 80.2996 454.227 92.0405C421.037 106.927 386.151 117.126 351.847 128.919C317.315 140.79 283.22 153.644 251.424 171.856C219.029 190.411 189.704 212.596 168.067 243.647C147.523 273.128 137.916 305.267 144.634 341.312C145.514 346.034 146.28 350.777 147.108 355.569C145.359 355.575 145.163 354.389 144.623 353.621C139.921 346.93 134.997 340.407 128.895 334.921C121.944 328.671 114.167 324.388 104.449 323.774C82.424 322.382 61.442 338.147 53.5764 359.498C45.0487 382.645 53.2934 409.286 73.4316 424.164C84.6638 432.463 97.2081 436.103 111.401 434.506C120.222 433.514 128.158 430.361 136.05 426.866C139.54 425.32 141.214 425.653 142.76 429.448C149.071 444.945 157.445 459.349 167.389 472.777C196.719 512.384 234.555 540.857 280.597 558.354C320.97 573.697 362.803 579.569 405.888 577.536C421.861 576.782 437.721 575.382 453.388 572.197C501.839 562.348 544.533 542.028 577.414 503.869C604.788 472.1 618.339 434.986 620.06 393.372C620.492 382.907 620.379 372.403 619.086 361.959C617.323 347.728 614.324 333.779 609.82 320.155C608.64 316.583 606.575 314.758 602.531 314.724C598.186 314.688 593.848 313.868 589.506 313.39C595.109 309.53 600.936 306.902 606.568 303.91C625.777 293.707 643.691 281.632 659.502 266.599C664.179 262.152 664.178 260.838 659.165 256.773C653.734 252.368 648.134 248.171 642.03 243.468Z" fill="white"/>
<path d="M530.799 452.567C509.569 455.136 498.372 441.922 495.708 428.443C495.42 426.983 495.166 425.486 495.164 424.006C495.136 402.515 495.022 381.023 495.21 359.533C495.319 347.09 503.636 335.863 514.94 332.076C527.484 327.873 540.332 331.443 548.155 341.525C552.586 347.237 554.605 353.95 554.649 361.094C554.771 381.252 554.815 401.412 554.627 421.568C554.479 437.438 546.425 447.822 530.799 452.567Z" fill="white"/>
<path d="M281.133 352.697C286.053 337.821 295.937 330.179 309.684 330.248C322.754 330.314 333.843 338.432 337.822 350.928C338.319 352.491 338.711 354.164 338.729 355.791C338.976 378.252 339.396 400.716 339.252 423.176C339.158 437.94 330.381 448.482 316.322 452.07C303.864 455.249 291.405 450.033 284.731 438.611C281.755 433.518 280.145 427.925 280.14 421.964C280.124 401.479 280.148 380.993 280.108 360.507C280.104 357.982 280.442 355.538 281.133 352.697Z" fill="white"/>
</svg>
