<svg width="791" height="791" viewBox="0 0 791 791" fill="none" xmlns="http://www.w3.org/2000/svg">
<g clip-path="url(#clip0_8_134)">
<g filter="url(#filter0_d_8_134)">
<path d="M171.383 9.72546e-05H619.617C642.136 -0.0448934 664.442 4.35736 685.256 12.9542C706.069 21.5511 724.98 34.1734 740.903 50.0968C756.827 66.0202 769.449 84.9312 778.046 105.745C786.643 126.558 791.045 148.864 791 171.383V619.617C791.045 642.136 786.643 664.442 778.046 685.256C769.449 706.069 756.827 724.98 740.903 740.903C724.98 756.827 706.069 769.449 685.256 778.046C664.442 786.643 642.136 791.045 619.617 791H171.383C148.864 791.045 126.558 786.643 105.745 778.046C84.9312 769.449 66.0202 756.827 50.0968 740.903C34.1734 724.98 21.5511 706.069 12.9543 685.256C4.35737 664.442 -0.0448849 642.136 9.71226e-05 619.617V171.383C0.0210583 125.936 18.0842 82.3563 50.2203 50.2203C82.3563 18.0842 125.936 0.0210584 171.383 9.72546e-05V9.72546e-05Z" fill="url(#paint0_linear_8_134)"/>
</g>
<g filter="url(#filter1_g_8_134)">
<path d="M532.016 678.223C507.284 684.743 482.616 688.824 457.452 690.515C441.785 691.568 426.126 691.778 410.531 691.145C353.775 688.84 298.837 678.272 248.189 651.246C203.695 627.503 168.549 594.085 145.744 548.557C144.502 546.077 142.808 545.45 140.246 545.217C91.4779 540.786 51.4839 503.729 43.9458 455.313C38.0094 417.186 51.6315 386.365 80.9984 362.143C94.4421 351.055 109.783 343.525 126.928 340.092C131.567 339.163 133.837 337.116 135.341 332.47C145.61 300.736 164.032 274.147 187.366 250.599C217.403 220.288 253.229 198.925 291.825 181.623C333.09 163.125 376.262 149.95 419.048 135.687C453.523 124.196 487.481 111.465 519.475 93.9953C532.666 86.7928 545.176 78.5827 556.926 69.198C563.985 63.5609 571.264 58.4769 580.787 57.6236C595.519 56.3036 606.606 62.7912 615.669 73.475C630.546 91.0122 639.119 111.619 644.334 133.798C647.904 148.977 649.052 164.384 648.227 179.891C647.411 195.222 644.698 210.282 639.338 224.721C637.885 228.637 638.93 230.503 642.418 232.109C671.02 245.275 697.044 262.644 722.213 281.371C729.162 286.542 735.914 291.996 741.929 298.263C752.009 308.764 753.369 320.11 745.575 332.335C736.919 345.911 724.787 356.077 711.784 365.256C707.568 368.232 703.228 371.041 698.853 373.78C696.867 375.024 696.219 376.3 696.911 378.706C703.428 401.372 706.19 424.53 706.659 448.101C707.829 506.857 690.82 559.419 652.958 604.529C624.333 638.636 587.303 660.435 545.324 674.254C541.058 675.659 536.722 676.852 532.016 678.223ZM684.61 300.922C656.064 281.082 625.624 265.356 591.363 257.876C588.181 257.181 585.145 256.876 582.088 258.224C572.949 262.254 563.808 266.279 554.648 270.259C553.741 270.654 552.779 271.931 551.184 269.929C556.053 265.989 560.073 261.192 563.909 256.225C594.241 216.944 606.127 173.074 596.556 123.995C594.316 112.509 590.315 101.541 584.141 91.4894C581.06 86.4728 579.847 86.4196 576.302 90.9282C573.318 94.7219 570.585 98.7495 567.303 102.265C547.497 123.487 522.986 137.754 496.808 149.494C463.618 164.381 428.732 174.58 394.428 186.373C359.896 198.244 325.801 211.098 294.005 229.31C261.61 247.865 232.285 270.05 210.647 301.101C190.103 330.582 180.497 362.721 187.215 398.766C188.095 403.488 188.86 408.231 189.689 413.023C187.94 413.029 187.743 411.843 187.204 411.075C182.502 404.384 177.578 397.861 171.476 392.375C164.524 386.125 156.747 381.842 147.03 381.228C125.005 379.836 104.023 395.601 96.1572 416.952C87.6295 440.099 95.8742 466.74 116.012 481.618C127.245 489.917 139.789 493.557 153.982 491.96C162.803 490.968 170.739 487.815 178.631 484.32C182.121 482.774 183.795 483.107 185.34 486.902C191.652 502.399 200.026 516.803 209.97 530.231C239.3 569.838 277.136 598.311 323.178 615.808C363.55 631.151 405.384 637.023 448.469 634.99C464.441 634.236 480.302 632.836 495.969 629.651C544.42 619.802 587.114 599.482 619.995 561.323C647.369 529.554 660.919 492.44 662.64 450.826C663.073 440.361 662.96 429.857 661.667 419.413C659.904 405.182 656.905 391.233 652.401 377.609C651.22 374.037 649.156 372.212 645.112 372.178C640.767 372.142 636.428 371.322 632.087 370.844C637.69 366.984 643.516 364.356 649.149 361.364C668.358 351.161 686.272 339.086 702.083 324.053C706.76 319.606 706.759 318.292 701.746 314.227C696.315 309.822 690.715 305.625 684.61 300.922Z" fill="black"/>
</g>
<g filter="url(#filter2_g_8_134)">
<path d="M573.38 510.021C552.15 512.59 540.953 499.376 538.289 485.897C538.001 484.437 537.747 482.94 537.745 481.46C537.717 459.969 537.603 438.477 537.791 416.987C537.9 404.544 546.216 393.317 557.521 389.53C570.064 385.327 582.913 388.896 590.736 398.979C595.167 404.691 597.186 411.404 597.23 418.548C597.352 438.706 597.395 458.866 597.207 479.022C597.059 494.892 589.006 505.276 573.38 510.021Z" fill="black"/>
</g>
<g filter="url(#filter3_g_8_134)">
<path d="M323.714 410.151C328.634 395.275 338.517 387.633 352.265 387.702C365.334 387.768 376.424 395.886 380.402 408.382C380.9 409.945 381.292 411.618 381.31 413.245C381.557 435.706 381.977 458.17 381.833 480.63C381.738 495.394 372.962 505.936 358.902 509.524C346.445 512.703 333.986 507.487 327.312 496.065C324.336 490.972 322.726 485.379 322.721 479.418C322.704 458.933 322.729 438.447 322.689 417.961C322.684 415.436 323.023 412.992 323.714 410.151Z" fill="black"/>
</g>
</g>
<defs>
<filter id="filter0_d_8_134" x="-4.00024" y="-0.000244141" width="799.001" height="799.001" filterUnits="userSpaceOnUse" color-interpolation-filters="sRGB">
<feFlood flood-opacity="0" result="BackgroundImageFix"/>
<feColorMatrix in="SourceAlpha" type="matrix" values="0 0 0 0 0 0 0 0 0 0 0 0 0 0 0 0 0 0 127 0" result="hardAlpha"/>
<feOffset dy="4"/>
<feGaussianBlur stdDeviation="2"/>
<feComposite in2="hardAlpha" operator="out"/>
<feColorMatrix type="matrix" values="0 0 0 0 0 0 0 0 0 0 0 0 0 0 0 0 0 0 0.25 0"/>
<feBlend mode="normal" in2="BackgroundImageFix" result="effect1_dropShadow_8_134"/>
<feBlend mode="normal" in="SourceGraphic" in2="effect1_dropShadow_8_134" result="shape"/>
</filter>
<filter id="filter1_g_8_134" x="32.5808" y="47.454" width="728.005" height="654.047" filterUnits="userSpaceOnUse" color-interpolation-filters="sRGB">
<feFlood flood-opacity="0" result="BackgroundImageFix"/>
<feBlend mode="normal" in="SourceGraphic" in2="BackgroundImageFix" result="shape"/>
<feTurbulence type="fractalNoise" baseFrequency="0.10000000149011612 0.10000000149011612" numOctaves="3" seed="1709" />
<feDisplacementMap in="shape" scale="20" xChannelSelector="R" yChannelSelector="G" result="displacedImage" width="100%" height="100%" />
<feMerge result="effect1_texture_8_134">
<feMergeNode in="displacedImage"/>
</feMerge>
</filter>
<filter id="filter2_g_8_134" x="527.685" y="377.8" width="79.6499" height="142.544" filterUnits="userSpaceOnUse" color-interpolation-filters="sRGB">
<feFlood flood-opacity="0" result="BackgroundImageFix"/>
<feBlend mode="normal" in="SourceGraphic" in2="BackgroundImageFix" result="shape"/>
<feTurbulence type="fractalNoise" baseFrequency="0.10000000149011612 0.10000000149011612" numOctaves="3" seed="7141" />
<feDisplacementMap in="shape" scale="20" xChannelSelector="R" yChannelSelector="G" result="displacedImage" width="100%" height="100%" />
<feMerge result="effect1_texture_8_134">
<feMergeNode in="displacedImage"/>
</feMerge>
</filter>
<filter id="filter3_g_8_134" x="312.689" y="377.701" width="79.1731" height="142.741" filterUnits="userSpaceOnUse" color-interpolation-filters="sRGB">
<feFlood flood-opacity="0" result="BackgroundImageFix"/>
<feBlend mode="normal" in="SourceGraphic" in2="BackgroundImageFix" result="shape"/>
<feTurbulence type="fractalNoise" baseFrequency="0.10000000149011612 0.10000000149011612" numOctaves="3" seed="6558" />
<feDisplacementMap in="shape" scale="20" xChannelSelector="R" yChannelSelector="G" result="displacedImage" width="100%" height="100%" />
<feMerge result="effect1_texture_8_134">
<feMergeNode in="displacedImage"/>
</feMerge>
</filter>
<linearGradient id="paint0_linear_8_134" x1="395.5" y1="9.72547e-05" x2="395.5" y2="791" gradientUnits="userSpaceOnUse">
<stop stop-color="#02B7FE"/>
<stop offset="1" stop-color="#1D3EF7"/>
</linearGradient>
<clipPath id="clip0_8_134">
<rect width="791" height="791" fill="white"/>
</clipPath>
</defs>
</svg>
